<mxfile host="app.diagrams.net" modified="2020-09-14T07:11:29.273Z" agent="5.0 (Macintosh)" etag="TLfSOv_IVDMowml_Uevl" version="13.6.10" type="github">
  <diagram id="0ruolZ99sbgW-hf09vW5" name="Page-1">
    <mxGraphModel dx="2386" dy="1258" grid="1" gridSize="10" guides="1" tooltips="1" connect="1" arrows="1" fold="1" page="1" pageScale="1" pageWidth="827" pageHeight="1169" math="0" shadow="0">
      <root>
        <mxCell id="0" />
        <mxCell id="1" parent="0" />
        <mxCell id="wblWj136w6WdmA6WF6v4-1" value="&lt;div&gt;Striking&lt;/div&gt;" style="ellipse;whiteSpace=wrap;html=1;aspect=fixed;" vertex="1" parent="1">
          <mxGeometry x="360" y="40" width="80" height="80" as="geometry" />
        </mxCell>
        <mxCell id="wblWj136w6WdmA6WF6v4-2" value="&lt;div&gt;Jiu jitsu&lt;/div&gt;" style="ellipse;whiteSpace=wrap;html=1;aspect=fixed;" vertex="1" parent="1">
          <mxGeometry x="440" y="160" width="80" height="80" as="geometry" />
        </mxCell>
        <mxCell id="wblWj136w6WdmA6WF6v4-3" value="Wrestling" style="ellipse;whiteSpace=wrap;html=1;aspect=fixed;" vertex="1" parent="1">
          <mxGeometry x="280" y="160" width="80" height="80" as="geometry" />
        </mxCell>
        <mxCell id="wblWj136w6WdmA6WF6v4-4" value="" style="endArrow=classic;html=1;exitX=1;exitY=0.5;exitDx=0;exitDy=0;entryX=0.5;entryY=0;entryDx=0;entryDy=0;" edge="1" parent="1" source="wblWj136w6WdmA6WF6v4-1" target="wblWj136w6WdmA6WF6v4-2">
          <mxGeometry width="50" height="50" relative="1" as="geometry">
            <mxPoint x="390" y="420" as="sourcePoint" />
            <mxPoint x="440" y="370" as="targetPoint" />
          </mxGeometry>
        </mxCell>
        <mxCell id="wblWj136w6WdmA6WF6v4-5" value="" style="endArrow=classic;html=1;exitX=0;exitY=0.5;exitDx=0;exitDy=0;entryX=1;entryY=0.5;entryDx=0;entryDy=0;" edge="1" parent="1" source="wblWj136w6WdmA6WF6v4-2" target="wblWj136w6WdmA6WF6v4-3">
          <mxGeometry width="50" height="50" relative="1" as="geometry">
            <mxPoint x="450" y="90" as="sourcePoint" />
            <mxPoint x="490" y="170" as="targetPoint" />
          </mxGeometry>
        </mxCell>
        <mxCell id="wblWj136w6WdmA6WF6v4-6" value="" style="endArrow=classic;html=1;exitX=0.5;exitY=0;exitDx=0;exitDy=0;entryX=0;entryY=0.5;entryDx=0;entryDy=0;" edge="1" parent="1" source="wblWj136w6WdmA6WF6v4-3" target="wblWj136w6WdmA6WF6v4-1">
          <mxGeometry width="50" height="50" relative="1" as="geometry">
            <mxPoint x="450" y="210" as="sourcePoint" />
            <mxPoint x="370" y="210" as="targetPoint" />
          </mxGeometry>
        </mxCell>
        <mxCell id="wblWj136w6WdmA6WF6v4-7" value="&lt;font style=&quot;font-size: 24px&quot;&gt;Fighter&lt;/font&gt;" style="text;html=1;align=center;verticalAlign=middle;resizable=0;points=[];autosize=1;" vertex="1" parent="1">
          <mxGeometry x="45" y="300" width="90" height="20" as="geometry" />
        </mxCell>
        <mxCell id="wblWj136w6WdmA6WF6v4-8" value="" style="endArrow=none;dashed=1;html=1;" edge="1" parent="1">
          <mxGeometry width="50" height="50" relative="1" as="geometry">
            <mxPoint x="40" y="280" as="sourcePoint" />
            <mxPoint x="800" y="280" as="targetPoint" />
          </mxGeometry>
        </mxCell>
        <mxCell id="wblWj136w6WdmA6WF6v4-9" value="&lt;font style=&quot;font-size: 24px&quot;&gt;Core mechanic&lt;/font&gt;" style="text;html=1;align=center;verticalAlign=middle;resizable=0;points=[];autosize=1;" vertex="1" parent="1">
          <mxGeometry x="40" y="40" width="180" height="20" as="geometry" />
        </mxCell>
        <mxCell id="wblWj136w6WdmA6WF6v4-10" value="&lt;div&gt;Striking&lt;/div&gt;" style="ellipse;whiteSpace=wrap;html=1;aspect=fixed;" vertex="1" parent="1">
          <mxGeometry x="50" y="360" width="80" height="80" as="geometry" />
        </mxCell>
        <mxCell id="wblWj136w6WdmA6WF6v4-11" value="" style="rounded=0;whiteSpace=wrap;html=1;" vertex="1" parent="1">
          <mxGeometry x="240" y="360" width="120" height="20" as="geometry" />
        </mxCell>
        <mxCell id="wblWj136w6WdmA6WF6v4-12" value="S" style="text;html=1;align=center;verticalAlign=middle;resizable=0;points=[];autosize=1;" vertex="1" parent="1">
          <mxGeometry x="290" y="330" width="20" height="20" as="geometry" />
        </mxCell>
        <mxCell id="wblWj136w6WdmA6WF6v4-13" style="edgeStyle=orthogonalEdgeStyle;rounded=0;orthogonalLoop=1;jettySize=auto;html=1;exitX=0.5;exitY=1;exitDx=0;exitDy=0;" edge="1" parent="1" source="wblWj136w6WdmA6WF6v4-11" target="wblWj136w6WdmA6WF6v4-11">
          <mxGeometry relative="1" as="geometry" />
        </mxCell>
        <mxCell id="wblWj136w6WdmA6WF6v4-14" value="" style="rounded=0;whiteSpace=wrap;html=1;" vertex="1" parent="1">
          <mxGeometry x="240" y="390" width="120" height="20" as="geometry" />
        </mxCell>
        <mxCell id="wblWj136w6WdmA6WF6v4-15" value="" style="rounded=0;whiteSpace=wrap;html=1;" vertex="1" parent="1">
          <mxGeometry x="240" y="420" width="120" height="20" as="geometry" />
        </mxCell>
        <mxCell id="wblWj136w6WdmA6WF6v4-21" value="" style="rounded=0;whiteSpace=wrap;html=1;" vertex="1" parent="1">
          <mxGeometry x="400" y="360" width="120" height="20" as="geometry" />
        </mxCell>
        <mxCell id="wblWj136w6WdmA6WF6v4-22" value="J" style="text;html=1;align=center;verticalAlign=middle;resizable=0;points=[];autosize=1;" vertex="1" parent="1">
          <mxGeometry x="450" y="330" width="20" height="20" as="geometry" />
        </mxCell>
        <mxCell id="wblWj136w6WdmA6WF6v4-23" style="edgeStyle=orthogonalEdgeStyle;rounded=0;orthogonalLoop=1;jettySize=auto;html=1;exitX=0.5;exitY=1;exitDx=0;exitDy=0;" edge="1" parent="1" source="wblWj136w6WdmA6WF6v4-21" target="wblWj136w6WdmA6WF6v4-21">
          <mxGeometry relative="1" as="geometry" />
        </mxCell>
        <mxCell id="wblWj136w6WdmA6WF6v4-24" value="" style="rounded=0;whiteSpace=wrap;html=1;" vertex="1" parent="1">
          <mxGeometry x="400" y="390" width="120" height="20" as="geometry" />
        </mxCell>
        <mxCell id="wblWj136w6WdmA6WF6v4-25" value="" style="rounded=0;whiteSpace=wrap;html=1;" vertex="1" parent="1">
          <mxGeometry x="400" y="420" width="120" height="20" as="geometry" />
        </mxCell>
        <mxCell id="wblWj136w6WdmA6WF6v4-26" value="" style="rounded=0;whiteSpace=wrap;html=1;" vertex="1" parent="1">
          <mxGeometry x="560" y="360" width="120" height="20" as="geometry" />
        </mxCell>
        <mxCell id="wblWj136w6WdmA6WF6v4-27" value="W" style="text;html=1;align=center;verticalAlign=middle;resizable=0;points=[];autosize=1;" vertex="1" parent="1">
          <mxGeometry x="605" y="330" width="30" height="20" as="geometry" />
        </mxCell>
        <mxCell id="wblWj136w6WdmA6WF6v4-28" style="edgeStyle=orthogonalEdgeStyle;rounded=0;orthogonalLoop=1;jettySize=auto;html=1;exitX=0.5;exitY=1;exitDx=0;exitDy=0;" edge="1" parent="1" source="wblWj136w6WdmA6WF6v4-26" target="wblWj136w6WdmA6WF6v4-26">
          <mxGeometry relative="1" as="geometry" />
        </mxCell>
        <mxCell id="wblWj136w6WdmA6WF6v4-29" value="" style="rounded=0;whiteSpace=wrap;html=1;" vertex="1" parent="1">
          <mxGeometry x="560" y="390" width="120" height="20" as="geometry" />
        </mxCell>
        <mxCell id="wblWj136w6WdmA6WF6v4-30" value="" style="rounded=0;whiteSpace=wrap;html=1;" vertex="1" parent="1">
          <mxGeometry x="560" y="420" width="120" height="20" as="geometry" />
        </mxCell>
        <mxCell id="wblWj136w6WdmA6WF6v4-31" value="" style="endArrow=none;dashed=1;html=1;" edge="1" parent="1">
          <mxGeometry width="50" height="50" relative="1" as="geometry">
            <mxPoint x="40" y="480" as="sourcePoint" />
            <mxPoint x="800" y="480" as="targetPoint" />
          </mxGeometry>
        </mxCell>
        <mxCell id="wblWj136w6WdmA6WF6v4-32" value="&lt;font style=&quot;font-size: 24px&quot;&gt;Training&lt;/font&gt;" style="text;html=1;align=center;verticalAlign=middle;resizable=0;points=[];autosize=1;" vertex="1" parent="1">
          <mxGeometry x="40" y="500" width="100" height="20" as="geometry" />
        </mxCell>
        <mxCell id="wblWj136w6WdmA6WF6v4-33" value="" style="whiteSpace=wrap;html=1;aspect=fixed;" vertex="1" parent="1">
          <mxGeometry x="200" y="560" width="80" height="80" as="geometry" />
        </mxCell>
        <mxCell id="wblWj136w6WdmA6WF6v4-34" value="" style="whiteSpace=wrap;html=1;aspect=fixed;" vertex="1" parent="1">
          <mxGeometry x="320" y="560" width="80" height="80" as="geometry" />
        </mxCell>
        <mxCell id="wblWj136w6WdmA6WF6v4-35" value="" style="whiteSpace=wrap;html=1;aspect=fixed;" vertex="1" parent="1">
          <mxGeometry x="440" y="560" width="80" height="80" as="geometry" />
        </mxCell>
        <mxCell id="wblWj136w6WdmA6WF6v4-36" value="S" style="ellipse;whiteSpace=wrap;html=1;aspect=fixed;" vertex="1" parent="1">
          <mxGeometry x="70" y="550" width="40" height="40" as="geometry" />
        </mxCell>
        <mxCell id="wblWj136w6WdmA6WF6v4-37" value="S" style="ellipse;whiteSpace=wrap;html=1;aspect=fixed;" vertex="1" parent="1">
          <mxGeometry x="220" y="580" width="40" height="40" as="geometry" />
        </mxCell>
        <mxCell id="wblWj136w6WdmA6WF6v4-38" value="S" style="ellipse;whiteSpace=wrap;html=1;aspect=fixed;" vertex="1" parent="1">
          <mxGeometry x="340" y="580" width="40" height="40" as="geometry" />
        </mxCell>
        <mxCell id="wblWj136w6WdmA6WF6v4-42" value="&lt;div&gt;J&lt;/div&gt;" style="ellipse;whiteSpace=wrap;html=1;aspect=fixed;" vertex="1" parent="1">
          <mxGeometry x="40" y="640" width="40" height="40" as="geometry" />
        </mxCell>
        <mxCell id="wblWj136w6WdmA6WF6v4-43" value="&lt;div&gt;J&lt;/div&gt;" style="ellipse;whiteSpace=wrap;html=1;aspect=fixed;" vertex="1" parent="1">
          <mxGeometry x="50" y="650" width="40" height="40" as="geometry" />
        </mxCell>
        <mxCell id="wblWj136w6WdmA6WF6v4-44" value="&lt;div&gt;J&lt;/div&gt;" style="ellipse;whiteSpace=wrap;html=1;aspect=fixed;" vertex="1" parent="1">
          <mxGeometry x="450" y="585" width="40" height="40" as="geometry" />
        </mxCell>
        <mxCell id="wblWj136w6WdmA6WF6v4-45" value="W" style="ellipse;whiteSpace=wrap;html=1;aspect=fixed;" vertex="1" parent="1">
          <mxGeometry x="230" y="720" width="40" height="40" as="geometry" />
        </mxCell>
        <mxCell id="wblWj136w6WdmA6WF6v4-46" value="W" style="ellipse;whiteSpace=wrap;html=1;aspect=fixed;" vertex="1" parent="1">
          <mxGeometry x="374" y="730" width="40" height="40" as="geometry" />
        </mxCell>
        <mxCell id="wblWj136w6WdmA6WF6v4-47" value="A" style="ellipse;whiteSpace=wrap;html=1;aspect=fixed;" vertex="1" parent="1">
          <mxGeometry x="460" y="690" width="40" height="40" as="geometry" />
        </mxCell>
        <mxCell id="wblWj136w6WdmA6WF6v4-48" value="" style="endArrow=none;dashed=1;html=1;" edge="1" parent="1">
          <mxGeometry width="50" height="50" relative="1" as="geometry">
            <mxPoint x="40" y="800" as="sourcePoint" />
            <mxPoint x="800" y="800" as="targetPoint" />
          </mxGeometry>
        </mxCell>
        <mxCell id="wblWj136w6WdmA6WF6v4-49" value="&lt;font style=&quot;font-size: 24px&quot;&gt;Opponent&lt;/font&gt;" style="text;html=1;align=center;verticalAlign=middle;resizable=0;points=[];autosize=1;" vertex="1" parent="1">
          <mxGeometry x="340" y="930" width="120" height="20" as="geometry" />
        </mxCell>
        <mxCell id="wblWj136w6WdmA6WF6v4-50" value="Round finish" style="rounded=0;whiteSpace=wrap;html=1;" vertex="1" parent="1">
          <mxGeometry x="500" y="840" width="120" height="60" as="geometry" />
        </mxCell>
        <mxCell id="wblWj136w6WdmA6WF6v4-51" value="MO" style="rounded=0;whiteSpace=wrap;html=1;" vertex="1" parent="1">
          <mxGeometry x="500" y="960" width="120" height="60" as="geometry" />
        </mxCell>
        <mxCell id="wblWj136w6WdmA6WF6v4-52" value="Losses" style="rounded=0;whiteSpace=wrap;html=1;" vertex="1" parent="1">
          <mxGeometry x="180" y="840" width="120" height="60" as="geometry" />
        </mxCell>
        <mxCell id="wblWj136w6WdmA6WF6v4-53" value="Wins" style="rounded=0;whiteSpace=wrap;html=1;" vertex="1" parent="1">
          <mxGeometry x="180" y="960" width="120" height="60" as="geometry" />
        </mxCell>
        <mxCell id="wblWj136w6WdmA6WF6v4-54" value="" style="endArrow=none;dashed=1;html=1;" edge="1" parent="1">
          <mxGeometry width="50" height="50" relative="1" as="geometry">
            <mxPoint x="40" y="1080" as="sourcePoint" />
            <mxPoint x="800" y="1080" as="targetPoint" />
          </mxGeometry>
        </mxCell>
        <mxCell id="wblWj136w6WdmA6WF6v4-55" value="&lt;font style=&quot;font-size: 24px&quot;&gt;Next in line&lt;br&gt;&lt;/font&gt;" style="text;html=1;align=center;verticalAlign=middle;resizable=0;points=[];autosize=1;" vertex="1" parent="1">
          <mxGeometry x="50" y="1100" width="130" height="20" as="geometry" />
        </mxCell>
      </root>
    </mxGraphModel>
  </diagram>
</mxfile>
